<svg class="img-fluid" id="outputsvg" xmlns="http://www.w3.org/2000/svg"
     style="transform: none; transform-origin: 50% 50%; cursor: move;" width="2560" height="1440"
     viewBox="0 0 25600 14400">
    <g id="l2KYGTTnuf536pVIcx8Vmh6" fill="rgb(254,247,233)" style="transform: none;">
        <g>
            <path id="p1HaPnb7uR"
                  d="M0 7200 l0 -7200 12800 0 12800 0 0 7200 0 7200 -12800 0 -12800 0 0 -7200z m15655 1703 c301 -56 626 -167 930 -316 l150 -74 -65 -7 c-302 -30 -482 -49 -575 -62 -60 -8 -135 -17 -165 -20 l-55 -6 -60 88 c-33 49 -115 162 -182 252 -68 90 -123 165 -123 168 0 4 22 0 145 -23z m-5465 -66 c352 -141 788 -394 1145 -663 305 -229 657 -556 864 -802 38 -45 49 -52 80 -52 20 0 171 45 336 100 1721 577 2949 848 4300 951 77 5 347 13 600 16 492 6 776 -6 1205 -48 726 -71 1530 -241 2162 -458 679 -233 1156 -494 1493 -815 69 -66 75 -74 45 -62 -19 8 -111 46 -204 85 -296 125 -771 271 -882 271 -44 0 -44 0 -44 -35 0 -19 4 -35 9 -35 16 0 959 -406 1136 -489 l100 -47 -90 -54 c-443 -264 -1025 -485 -1666 -634 -891 -207 -1743 -296 -2819 -296 -1433 1 -2702 165 -4224 546 -455 114 -830 222 -1386 400 -133 42 -112 53 -353 -192 -452 -462 -852 -760 -1382 -1029 -174 -88 -339 -160 -513 -224 l-83 -30 37 52 c126 175 1006 1441 1132 1629 62 92 66 125 24 184 -131 182 -1192 1774 -1192 1789 0 9 27 0 170 -58z m-14 -604 c26 -43 111 -175 189 -293 77 -118 145 -221 149 -229 8 -12 -4 -13 -75 -8 -46 4 -293 18 -549 32 -256 14 -582 32 -725 40 -143 8 -350 19 -460 25 -110 5 -279 14 -375 20 -96 5 -260 14 -365 20 -104 6 -266 15 -360 20 -167 10 -810 45 -1355 75 -151 8 -477 26 -725 40 -247 14 -648 36 -890 50 -640 36 -809 46 -819 49 -6 1 147 8 340 15 192 6 450 16 574 21 124 5 362 14 530 20 564 19 1433 50 1690 60 140 5 464 17 720 26 572 20 2443 91 2451 93 4 0 29 -34 55 -76z m644 -980 c74 -114 135 -214 135 -223 0 -8 -41 -78 -92 -155 l-92 -140 -208 7 c-210 7 -555 18 -1998 63 -434 14 -1062 34 -1395 45 -650 22 -3129 100 -3965 125 -280 9 -539 19 -575 22 -73 8 -68 8 405 32 256 13 838 45 1210 66 143 8 393 21 555 30 399 21 1137 63 1340 75 311 19 1385 80 1670 95 366 19 1641 90 1960 110 135 8 362 21 505 30 239 14 317 18 385 23 22 2 41 -22 160 -205z m-262 -831 c-1 -5 -88 -138 -192 -295 l-190 -287 -75 0 c-42 0 -229 5 -416 10 -579 16 -1076 30 -1695 45 -1820 46 -3307 84 -3930 102 l-265 7 195 12 c107 7 281 17 385 23 601 36 894 53 1180 71 176 11 545 33 820 50 275 17 597 37 715 45 189 13 985 64 1965 125 176 11 448 29 605 40 157 10 409 26 560 35 244 14 302 18 333 24 5 0 7 -3 5 -7z m5802 -717 c416 -39 969 -74 1210 -76 63 0 132 -3 153 -7 l39 -7 -94 -54 c-471 -275 -1025 -491 -1488 -580 -185 -36 -510 -71 -510 -56 0 4 13 24 29 44 106 135 282 438 373 644 l53 119 40 -6 c22 -3 110 -12 195 -21z"></path>
            <path id="pkqV0LBz8"
                  d="M16750 8044 c-30 -2 -143 -8 -250 -14 -772 -43 -1554 -157 -2465 -359 -613 -137 -1527 -391 -1882 -523 -50 -18 -53 -22 -53 -54 0 -27 4 -34 20 -34 11 0 197 18 413 39 1162 117 2175 173 3172 175 837 2 1557 -37 2515 -135 162 -16 313 -29 334 -27 l39 3 27 81 c38 113 99 239 162 336 68 104 192 253 252 302 40 32 46 42 46 75 l0 38 -132 16 c-524 67 -745 79 -1488 82 -360 1 -680 1 -710 -1z"></path>
            <path id="px8J7DGF0"
                  d="M19366 7935 c-102 -58 -166 -108 -252 -197 -134 -139 -271 -342 -389 -578 -82 -163 -115 -243 -115 -277 0 -95 420 -502 518 -503 l34 0 -4 53 c-3 28 -17 111 -32 182 -34 158 -39 362 -13 511 45 251 168 502 351 716 50 58 66 85 66 108 0 29 -2 30 -43 30 -32 0 -62 -11 -121 -45z"></path>
            <path id="pi7lonfGZ"
                  d="M20544 7326 c-181 -42 -327 -170 -399 -351 -36 -91 -46 -262 -21 -368 45 -190 183 -338 383 -408 82 -29 236 -36 333 -15 202 43 360 190 422 391 31 101 31 262 -1 365 -54 177 -183 313 -352 371 -82 28 -273 36 -365 15z m329 -283 c108 -34 211 -172 212 -283 1 -147 -151 -302 -298 -303 -109 -1 -239 89 -290 201 -43 96 -19 206 64 297 52 57 91 81 160 99 57 15 74 14 152 -11z"></path>
        </g>
    </g>
    <g id="l7hSt2L8F3pTjSjd3PXQ5yM" fill="rgb(16,48,85)" style="transform: none;">
        <g>
            <path id="p1CVz3A9Ka"
                  d="M9934 8948 c131 -211 1090 -1649 1249 -1874 l29 -42 -43 -63 c-147 -219 -952 -1377 -1148 -1654 -51 -71 -88 -131 -82 -133 31 -10 411 138 646 253 545 267 976 583 1443 1059 l212 217 243 -76 c357 -112 349 -110 517 -159 847 -245 1780 -450 2588 -570 469 -70 1136 -133 1612 -151 80 -3 174 -8 210 -11 119 -8 972 -4 1220 6 1426 59 2700 334 3570 770 161 81 410 226 410 240 0 3 -53 30 -117 59 -177 80 -1079 471 -1163 504 -46 17 35 3 157 -28 338 -87 635 -197 1027 -379 l98 -46 -43 52 c-122 151 -318 321 -529 463 -695 465 -2009 859 -3290 984 -432 43 -712 54 -1235 48 -269 -3 -553 -10 -630 -16 -677 -52 -1208 -129 -1880 -271 -738 -156 -1377 -335 -2319 -647 l-409 -135 -51 58 c-590 678 -1452 1281 -2190 1530 -55 19 -104 34 -108 34 -5 0 -2 -10 6 -22z m8361 -952 c359 -28 755 -73 755 -87 0 -4 -21 -25 -46 -45 -60 -49 -184 -198 -252 -302 -61 -94 -129 -235 -162 -337 -12 -38 -26 -74 -30 -78 -4 -5 -167 8 -361 27 -656 65 -1090 96 -1764 123 -274 11 -1272 8 -1600 -6 -626 -26 -1186 -59 -1690 -101 -254 -21 -926 -86 -985 -95 -69 -11 -6 15 220 89 313 103 700 214 1162 331 1075 273 2067 434 2988 485 107 6 220 12 250 14 30 2 336 2 680 1 467 -2 678 -7 835 -19z m1139 -123 c-330 -386 -441 -839 -329 -1339 15 -64 25 -117 23 -119 -2 -2 -44 26 -93 62 -106 78 -293 263 -352 348 l-41 61 32 74 c162 372 392 706 592 861 60 46 202 129 222 129 7 0 -17 -35 -54 -77z m1445 -593 c332 -112 475 -504 294 -809 -187 -315 -624 -359 -878 -89 -113 119 -162 250 -152 410 15 241 193 449 431 504 84 19 223 12 305 -16z"></path>
            <path id="psGeQWJPv"
                  d="M20691 7085 c-69 -20 -108 -44 -160 -100 -64 -70 -85 -124 -85 -225 -1 -102 19 -155 88 -228 68 -73 149 -107 251 -107 67 0 89 5 137 28 74 36 134 96 166 165 23 48 27 71 27 142 0 73 -4 93 -28 142 -72 147 -243 226 -396 183z"></path>
            <path id="pkGZhYOzv"
                  d="M15437 8946 c169 -221 273 -362 337 -453 43 -62 84 -113 92 -113 8 0 60 7 117 15 151 23 500 62 672 75 83 7 161 15 175 19 21 6 -7 23 -190 114 -313 154 -562 244 -860 311 -114 25 -301 56 -341 56 -20 0 -20 0 -2 -24z"></path>
            <path id="pdZzMiBoX"
                  d="M16042 5642 c-97 -218 -265 -505 -391 -667 -26 -33 -51 -66 -56 -74 -7 -12 14 -13 138 -8 625 29 1331 263 2019 669 l140 83 -164 8 c-90 4 -311 14 -493 22 -318 15 -647 39 -940 70 -220 23 -192 34 -253 -103z"></path>
        </g>
    </g>
    <g id="l1AYsRffT5OLQMlh8NTBPgv" fill="rgb(69,128,133)" style="transform: none;">
        <g>
            <path id="pt2XN50tF"
                  d="M10555 7483 c-27 -2 -167 -10 -310 -18 -143 -9 -370 -22 -505 -30 -319 -20 -1594 -91 -1960 -110 -285 -15 -1359 -76 -1670 -95 -203 -12 -941 -54 -1340 -75 -162 -9 -412 -22 -555 -30 -349 -20 -943 -52 -1195 -65 -113 -6 -413 -22 -668 -35 -255 -14 -480 -25 -499 -25 -20 0 -34 -2 -31 -5 5 -5 190 -12 1388 -50 432 -13 853 -27 935 -30 83 -3 443 -14 800 -25 358 -11 718 -22 800 -25 83 -2 224 -7 315 -10 91 -3 230 -8 310 -11 283 -9 2616 -83 3300 -104 179 -5 384 -12 455 -15 72 -2 218 -7 325 -10 107 -3 229 -8 271 -11 l76 -5 104 158 c57 87 104 165 104 173 0 9 -65 115 -145 238 l-145 222 -55 -2 c-30 -1 -77 -3 -105 -5z"></path>
        </g>
    </g>
    <g id="l1MVtKKxa49ufpL6E5433HL" fill="rgb(190,50,51)" style="transform: none;">
        <g>
            <path id="pDhH98lsa"
                  d="M9375 8310 c-390 -15 -793 -30 -895 -34 -102 -3 -241 -8 -310 -11 -69 -3 -314 -12 -545 -20 -231 -8 -541 -19 -690 -25 -269 -10 -1148 -41 -1700 -60 -159 -5 -405 -14 -545 -20 -140 -5 -433 -17 -650 -25 -217 -9 -486 -19 -598 -24 -111 -4 -205 -11 -209 -14 -3 -4 14 -7 38 -7 24 0 114 -5 199 -10 298 -18 349 -21 875 -50 292 -16 568 -32 615 -35 95 -6 837 -47 1260 -70 545 -30 1188 -65 1355 -75 94 -5 256 -14 360 -20 105 -6 269 -15 365 -20 96 -6 265 -15 375 -20 110 -6 234 -12 275 -15 41 -2 161 -9 265 -15 105 -6 395 -22 645 -36 250 -14 517 -28 593 -31 l139 -6 -45 69 c-24 38 -100 155 -168 259 -69 105 -146 225 -173 268 -46 74 -49 77 -85 76 -20 -1 -355 -14 -746 -29z"></path>
        </g>
    </g>
    <g id="l2K5U34tULbk6sUJEIedkFZ" fill="rgb(208,150,47)" style="transform: none;">
        <g>
            <path id="p16Utt5wS"
                  d="M10490 6454 c-14 -2 -149 -11 -300 -19 -151 -9 -403 -25 -560 -35 -157 -11 -429 -29 -605 -40 -980 -61 -1776 -112 -1965 -125 -118 -8 -440 -28 -715 -45 -275 -16 -606 -37 -735 -45 -243 -15 -709 -43 -1170 -70 -348 -20 -701 -42 -983 -60 -125 -8 -244 -15 -264 -15 -20 0 -34 -2 -32 -4 7 -8 220 -16 684 -26 242 -6 692 -17 1000 -25 308 -8 918 -24 1355 -35 437 -11 874 -22 970 -25 96 -3 357 -10 580 -15 223 -5 493 -12 600 -15 107 -3 281 -7 385 -10 105 -3 276 -7 380 -10 579 -17 901 -25 991 -25 l100 0 206 313 c113 171 208 318 212 325 5 9 -7 12 -51 11 -32 -1 -69 -3 -83 -5z"></path>
        </g>
    </g>
</svg>
